<svg width="20" height="25" viewBox="0 0 20 25" fill="none" xmlns="http://www.w3.org/2000/svg">
<path d="M16.6638 23.6451C15.3715 24.8978 13.9605 24.7 12.6023 24.1066C11.165 23.5 9.84637 23.4737 8.32993 24.1066C6.43108 24.9242 5.42891 24.6868 4.29487 23.6451C-2.14012 17.0123 -1.19069 6.91147 6.1146 6.54225C7.89477 6.63455 9.1343 7.51805 10.176 7.59716C11.732 7.28069 13.2221 6.37082 14.8836 6.4895C16.8748 6.64774 18.378 7.43893 19.367 8.86306C15.2528 11.3289 16.2286 16.7486 19.9999 18.265C19.2483 20.243 18.2725 22.2078 16.6506 23.6583L16.6638 23.6451ZM10.0442 6.46313C9.84637 3.52255 12.2331 1.09624 14.9759 0.858887C15.3583 4.26099 11.8903 6.79279 10.0442 6.46313Z" fill="white"/>
</svg>
