<svg width="15" height="14" viewBox="0 0 15 14" fill="none" xmlns="http://www.w3.org/2000/svg">
<path fill-rule="evenodd" clip-rule="evenodd" d="M5.49238 7.46865C5.38438 7.5669 5.24863 7.61565 5.11363 7.61565C4.96063 7.61565 4.80838 7.5534 4.69738 7.4319L3.33013 5.9319C3.12088 5.7024 3.13738 5.34614 3.36688 5.13764C3.59563 4.92689 3.95188 4.94414 4.16188 5.17363L5.52913 6.67365C5.73838 6.9039 5.72188 7.2594 5.49238 7.46865ZM14.2621 4.56989L12.0564 1.33064C11.7136 0.823638 11.1436 0.520638 10.5309 0.520638H4.39063C3.77863 0.520638 3.20863 0.82363 2.86663 1.32913L0.653378 4.56989C0.172628 5.27489 0.237878 6.21465 0.813128 6.8559L6.29262 12.8709C6.59037 13.1987 7.01487 13.3869 7.45737 13.3869C7.89987 13.3869 8.32437 13.1987 8.62137 12.8702L14.1016 6.8484C14.6791 6.2154 14.7451 5.27864 14.2621 4.56989Z" fill="white"/>
</svg>
