<svg width="21" height="21" viewBox="0 0 21 21" fill="none" xmlns="http://www.w3.org/2000/svg">
<path d="M20.3798 8.88976C20.4988 9.57448 20.5581 10.2682 20.5571 10.9632C20.5571 14.067 19.4476 16.6913 17.517 18.4677H17.5196C15.8312 20.0272 13.5104 20.93 10.7585 20.93C8.05294 20.93 5.45816 19.8553 3.54501 17.9421C1.63186 16.029 0.557068 13.4342 0.557068 10.7286C0.557068 8.02298 1.63186 5.42819 3.54501 3.51504C5.45816 1.6019 8.05294 0.527101 10.7585 0.527101C13.291 0.497443 15.7367 1.44885 17.5833 3.18203L14.6708 6.09456C13.618 5.09095 12.2129 4.54137 10.7585 4.56433C8.09723 4.56433 5.83633 6.35979 5.03041 8.77754C4.60311 10.0444 4.60311 11.4165 5.03041 12.6834H5.03424C5.84398 15.0974 8.10106 16.8928 10.7624 16.8928C12.137 16.8928 13.3178 16.5409 14.2334 15.9186H14.2296C14.7612 15.5664 15.216 15.1101 15.5664 14.5773C15.9169 14.0445 16.1557 13.4462 16.2686 12.8186H10.7585V8.89103L20.3798 8.88976Z" fill="white"/>
</svg>
