<svg width="22" height="19" viewBox="0 0 22 19" fill="none" xmlns="http://www.w3.org/2000/svg">
<path opacity="0.65" d="M8.4529 12.0993C8.13402 11.7833 7.88118 11.4071 7.70913 10.9924C7.53707 10.5778 7.44922 10.133 7.4507 9.68408C7.44945 9.0064 7.64932 8.34358 8.025 7.77955C8.40067 7.21553 8.93527 6.77566 9.56109 6.51564C10.1869 6.25563 10.8758 6.18716 11.5406 6.3189C12.2053 6.45064 12.816 6.77668 13.2954 7.25572" stroke="white" stroke-width="0.8" stroke-linecap="round" stroke-linejoin="round"/>
<path opacity="0.65" d="M14.2433 10.2923C14.1192 10.9763 13.7897 11.6064 13.2986 12.0984C12.8075 12.5905 12.1782 12.9214 11.4944 13.0469" stroke="white" stroke-width="0.8" stroke-linecap="round" stroke-linejoin="round"/>
<path opacity="0.65" d="M5.08702 15.4645C3.2169 13.9202 1.7624 11.933 0.855743 9.68347C1.77317 7.42253 3.23796 5.42496 5.11848 3.87024C6.74387 2.53539 8.77577 1.79455 10.8789 1.76996C12.9917 1.79763 15.0316 2.54631 16.6607 3.89196" stroke="white" stroke-width="0.8" stroke-linecap="round" stroke-linejoin="round"/>
<path opacity="0.65" d="M18.9492 6.27429C19.7324 7.32926 20.3878 8.47325 20.9019 9.68238C18.7702 14.6211 15.0037 17.5955 10.8784 17.5955C9.94569 17.5953 9.01915 17.4441 8.1347 17.148" stroke="white" stroke-width="0.8" stroke-linecap="round" stroke-linejoin="round"/>
<path opacity="0.65" d="M19.4253 1.13678L2.33279 18.2293" stroke="white" stroke-width="0.8" stroke-linecap="round" stroke-linejoin="round"/>
</svg>
