<svg width="29" height="29" viewBox="0 0 29 29" fill="none" xmlns="http://www.w3.org/2000/svg">
<path d="M11.0491 24.3098V20.732C11.0491 19.8219 11.791 19.0825 12.7102 19.0764H16.0773C17.0009 19.0764 17.7496 19.8176 17.7496 20.732V24.3209C17.7494 25.0936 18.3723 25.7251 19.1526 25.7432H21.3973C23.635 25.7432 25.449 23.9473 25.449 21.732V11.554C25.4371 10.6825 25.0237 9.86409 24.3267 9.33172L16.6497 3.20937C15.3048 2.14335 13.3929 2.14335 12.048 3.20937L4.40471 9.34283C3.70498 9.87304 3.29097 10.6928 3.28235 11.5651V21.732C3.28235 23.9473 5.09637 25.7432 7.33408 25.7432H9.5788C10.3784 25.7432 11.0267 25.1014 11.0267 24.3098" stroke="white" stroke-width="1.5" stroke-linecap="round" stroke-linejoin="round"/>
</svg>
