<svg width="18" height="17" viewBox="0 0 18 17" fill="none" xmlns="http://www.w3.org/2000/svg">
<path fill-rule="evenodd" clip-rule="evenodd" d="M7.13372 11.5306C3.82545 11.5306 1 12.0306 1 14.0342C1 16.0377 3.80824 16.5558 7.13372 16.5558C10.4428 16.5558 13.2674 16.0549 13.2674 14.0523C13.2674 12.0496 10.4601 11.5306 7.13372 11.5306Z" stroke="white" stroke-width="0.8" stroke-linecap="round" stroke-linejoin="round"/>
<path fill-rule="evenodd" clip-rule="evenodd" d="M7.13374 8.67297C9.30511 8.67297 11.0651 6.91298 11.0651 4.74161C11.0651 2.57023 9.30511 0.810242 7.13374 0.810242C4.96323 0.810242 3.20321 2.57023 3.20321 4.74161C3.19549 6.90523 4.94257 8.66522 7.10706 8.67297H7.13374Z" stroke="white" stroke-width="0.8" stroke-linecap="round" stroke-linejoin="round"/>
<path d="M15.1609 5.90442V9.35555" stroke="white" stroke-width="0.8" stroke-linecap="round" stroke-linejoin="round"/>
<path d="M16.9218 7.62994H13.4018" stroke="white" stroke-width="0.8" stroke-linecap="round" stroke-linejoin="round"/>
</svg>
